<svg width="169" height="169" viewBox="0 0 169 169" fill="none" xmlns="http://www.w3.org/2000/svg">
<g clip-path="url(#clip0_24_32)">
<rect width="169" height="169" rx="17" fill="#E6E6E6"/>
<path d="M6 199.592H45.2531C45.9095 186.507 46.1157 173.299 47.249 160.339C42.7826 158.381 38.2008 157.252 33.7211 155.46C31.856 154.422 31.1974 153.495 29.8845 151.759C28.5716 150.02 29.7182 147.532 29.5075 145.48C29.1881 142.378 24.1739 139.785 24.6286 136.388C22.6504 133.511 19.6388 131.959 19.9714 127.961C20.3041 123.962 19.0777 119.223 19.5279 115.098C16.6116 108.718 13.0966 102.459 10.2136 96.0259C11.695 95.8263 13.529 96.5625 14.649 95.3605C16.656 94.8239 19.4791 95.1011 21.5238 94.917C23.5685 94.7329 26.314 93.8525 28.1769 94.6952C30.0419 95.538 32.3816 95.4404 33.007 97.8488C33.6302 100.259 34.7434 101.264 35.4908 103.349C36.2382 105.435 37.2117 106.833 38.0057 108.817C38.8018 110.802 39.7022 112.521 40.5959 114.433C40.2721 111.468 41.0328 107.123 40.8177 104.01C40.6026 100.896 41.585 97.4829 42.4433 94.7684C43.2993 92.054 44.763 90.1534 46.6391 88.0976C48.5131 86.0396 51.019 85.1947 53.4629 84.0548C55.909 82.9171 59.4241 83.2231 61.2204 80.9456C61.9966 79.1448 62.8038 79.2424 64.3252 78.5061C64.6157 78.0271 65.4007 77.5104 65.6558 76.9537C65.8288 75.6165 66.2878 74.3014 66.5429 72.9619C66.6116 72.5938 66.5916 71.7799 67.4299 71.8531C67.0862 70.6777 67.92 68.5465 67.3568 67.4909C66.7935 66.4352 65.8798 65.9651 65.1568 65.0337C64.4338 64.1 64.0147 63.2706 63.5911 62.164C63.1675 61.0574 62.7307 59.8132 62.4778 58.6201C62.2272 57.427 62.0809 56.2982 61.3867 55.2759C60.6926 54.2535 60.3489 53.1424 60.1138 51.8917C59.8765 50.6431 59.2578 50.184 58.5769 48.9931C57.8939 47.8045 58.2908 46.2853 58.1156 44.7973C57.9404 43.3092 59.0759 42.4665 60.1116 42.1361C59.5438 38.1686 57.7586 32.8905 58.7654 29.0362C59.7723 25.1796 61.2892 21.5737 64.5469 19.2939C63.3605 17.7859 69.1154 17.4976 67.4299 16.4109C69.4281 16.2091 71.3885 15.373 73.1981 14.639C75.0056 13.9049 77.4117 14.8385 79.4077 14.6345C81.4036 14.4327 82.967 14.446 85.1892 15.2843C87.4091 16.1248 87.7639 16.9587 89.0102 18.5598C90.2544 20.1632 92.8291 19.4513 94.0976 21.2344C95.3639 23.0174 96.4528 23.5053 97.4352 25.4369C98.4199 27.3663 98.7082 28.617 98.9211 30.8259C98.1427 30.2182 98.5153 32.6421 98.4776 33.7088C98.4399 34.7756 98.2957 36.3723 98.0362 37.4811C97.7768 38.5878 97.5727 39.874 97.3709 41.0294C97.1691 42.1848 96.7012 43.3536 96.7034 44.5755C96.455 44.6753 99.2626 44.0277 99.1251 45.4803C98.9876 46.9351 99.4955 47.6093 98.9233 49.4566C98.3489 51.304 96.6014 53.1469 95.8341 55.0164C95.0667 56.8837 94.9847 56.3536 93.8204 57.4381C93.8847 59.8487 93.8382 62.9468 94.2595 65.2044C94.6787 67.462 94.5899 69.9725 96.7034 70.966C97.1336 71.3519 97.2822 72.015 97.5905 72.5184C98.7925 74.0574 101.5 76.4858 103.135 77.3973C104.538 78.1801 105.907 78.9386 106.905 80.2803C108.967 81.0409 112.07 79.9853 114.223 80.502C116.377 81.0165 118.96 80.8059 121.1 81.1651C123.238 81.5266 124.303 82.9082 125.072 84.7334C125.842 86.5585 127.341 87.4589 128.656 88.6897C129.973 89.9206 131.461 90.9607 132.563 92.3223C133.663 93.6862 135.045 94.9081 136.123 96.3031C137.203 97.698 138.285 99.1417 139.449 100.517C140.614 101.892 141.516 103.4 142.776 104.73C144.035 106.059 144.774 107.804 146.213 109.055C147.653 110.308 148.101 111.995 149.54 113.268C150.979 114.544 151.569 116.145 152.866 117.482C154.164 118.819 155.02 120.294 156.193 121.696C157.368 123.095 158.592 124.35 159.53 125.898C160.471 127.444 161.699 128.675 162.846 130.123C163.992 131.571 165.336 132.717 166.184 134.325C167.031 135.931 167.379 138.69 166.8 140.397C166.219 142.103 164.86 143.498 163.955 145.092C163.048 146.687 162.065 148.499 161.256 150.155C160.444 151.81 159.526 153.526 158.579 155.019C157.632 156.511 156.674 158.163 155.627 159.607C154.578 161.048 153.354 162.421 152.385 163.905C151.418 165.388 149.779 166.468 148.985 168.045C148.191 169.624 146.36 170.547 145.437 172.037C144.515 173.53 143.233 174.845 142 176.14C140.767 177.435 139.835 178.912 138.562 180.243C137.289 181.575 136.429 182.986 135.014 184.234C133.601 185.483 132.983 187.461 131.299 188.282C131.228 186.623 131.2 183.469 129.082 185.62C130.031 190.431 132.408 194.773 133.295 199.592H169V0H6V199.592Z" stroke="#FEFEFE" stroke-width="0.3"/>
<path d="M60.1121 42.1362C60.2562 43.1408 60.4736 44.5623 60.9992 45.4627C62.2588 42.684 61.5203 39.6923 61.4427 36.3702C61.3651 33.0481 62.383 31.2052 64.2703 28.5528C66.1597 25.9027 69.3687 25.7719 72.5311 26.1688C75.6936 26.5658 79.7054 26.3795 82.7325 26.1688C85.7596 25.9582 89.1682 26.1999 90.5609 28.9853C91.9559 31.7707 89.6628 35.5607 91.4525 38.2951C93.2443 41.0296 93.4195 43.8748 93.1556 47.2369C94.4862 46.6913 95.6838 45.5071 96.7039 44.5756C96.7017 43.3537 97.1696 42.185 97.3715 41.0296C97.5733 39.8741 97.7773 38.5879 98.0368 37.4813C98.2962 36.3724 98.4404 34.7757 98.4781 33.709C98.5158 32.6423 98.1432 30.2183 98.9216 30.826C98.7087 28.6172 98.4204 27.3664 97.4358 25.437C96.4533 23.5054 95.3644 23.0175 94.0981 21.2345C92.8296 19.4515 90.2549 20.1633 89.0108 18.5599C87.7644 16.9588 87.4096 16.1249 85.1897 15.2844C82.9676 14.4461 81.4041 14.4328 79.4082 14.6346C77.4123 14.8387 75.0061 13.905 73.1987 14.6391C71.389 15.3731 69.4286 16.2092 67.4305 16.411C69.1159 17.4977 63.361 17.786 64.5475 19.294C61.2897 21.5738 59.7728 25.1797 58.766 29.0363C57.7591 32.8906 59.5444 38.1687 60.1121 42.1362Z" stroke="#9D9D9D" stroke-width="0.3"/>
<path d="M60.1116 42.1355C59.0759 42.466 57.9405 43.3087 58.1157 44.7968C58.2909 46.2848 57.8939 47.8039 58.5769 48.9926C59.2578 50.1835 59.8765 50.6426 60.1138 51.8911C60.3489 53.1419 60.6926 54.253 61.3868 55.2753C62.0809 56.2977 62.2273 57.4265 62.4779 58.6196C62.7307 59.8127 63.1676 61.0568 63.5911 62.1635C64.0147 63.2701 64.4339 64.0995 65.1568 65.0332C65.8798 65.9646 66.7935 66.4347 67.3568 67.4903C67.9201 68.546 67.0862 70.6772 67.43 71.8525C66.5917 71.7794 66.6116 72.5932 66.5429 72.9614C66.6427 72.7507 66.9554 72.3937 67.2082 72.2961C66.911 75.4186 68.317 78.9868 70.1466 81.5549C71.9784 84.1208 74.4024 87.2832 77.8531 86.711C78.148 86.711 78.4452 86.711 78.7402 86.711C80.827 86.4205 82.8052 84.7063 84.6725 83.7726C86.5375 82.8368 88.1476 81.2267 89.884 80.1134C91.6205 78.9979 92.8003 76.6982 94.4857 76.2879C94.8428 74.4251 97.0383 72.6687 95.3728 70.7437C95.8674 70.6284 96.2 71.0852 96.7034 70.9655C94.59 69.9719 94.6787 67.4615 94.2595 65.2039C93.8382 62.9463 93.8847 59.8482 93.8204 57.4376C94.9847 56.3531 95.0668 56.8832 95.8341 55.0159C96.6014 53.1464 98.3489 51.3035 98.9233 49.4561C99.4955 47.6088 98.9876 46.9346 99.1251 45.4798C99.2626 44.0272 96.455 44.6748 96.7034 44.575C95.6833 45.5064 94.4857 46.6907 93.1551 47.2362C93.419 43.8742 93.2438 41.0289 91.4519 38.2945C89.6623 35.5601 91.9554 31.7701 90.5604 28.9846C89.1677 26.1992 85.7591 25.9575 82.732 26.1682C79.7049 26.3789 75.6931 26.5652 72.5306 26.1682C69.3682 25.7712 66.1592 25.9021 64.2697 28.5522C62.3825 31.2046 61.3646 33.0475 61.4422 36.3695C61.5198 39.6916 62.2583 42.6833 60.9987 45.4621C60.4731 44.5617 60.2557 43.1401 60.1116 42.1355Z" stroke="#E8E8E8" stroke-width="0.3"/>
<path d="M78.7401 86.7113C80.9113 86.7113 83.486 86.5716 84.5061 88.929C82.2064 90.2374 81.4036 93.2889 79.1837 94.9167C81.2617 101.073 82.9737 106.209 82.9538 113.102C82.9338 119.994 83.3884 127.643 83.6191 134.613C83.8497 141.584 84.3198 148.642 84.5061 155.681C84.6924 162.72 85.1116 169.934 85.3932 176.971C82.3528 180.034 79.3855 183.28 76.5225 186.507C81.9026 186.669 87.4047 185.554 92.4898 185.62C92.6584 185.476 93.1795 185.791 92.4898 185.177C93.1108 184.811 94.0644 184.551 93.8204 183.624C95.1266 183.387 96.0581 182.329 97.3022 181.784C98.5441 181.236 100.338 181.105 101.139 180.076C99.307 179.792 97.4286 180.28 95.7653 180.468C94.1021 180.657 93.2904 181.852 91.9908 182.682C90.6913 183.511 89.5979 184.434 88.2762 184.511C88.4026 183.123 88.9504 181.489 90.1058 180.575C91.2612 179.659 92.1638 178.907 93.6009 178.304C95.0379 177.701 95.151 175.794 97.1492 176.086C99.1473 176.379 99.4201 174.676 98.2735 173.183C97.1248 171.693 97.5018 170.427 96.7522 168.939C96.0026 167.448 95.8607 166.138 95.3041 164.621C94.7496 163.102 94.4569 161.702 94.0466 160.112C93.6386 158.52 93.5321 156.633 93.1551 155.016C92.6096 155.575 89.6711 155.499 89.4028 154.111C89.1367 152.721 91.6116 152.699 92.7116 153.242C91.8201 151.104 92.2237 148.463 91.84 146.13C91.4586 143.795 91.8733 140.563 91.8245 138.162C91.7757 135.76 91.4076 132.932 92.0441 130.841C92.6827 128.75 92.4632 126.239 93.3769 124.412C91.6626 125.288 92.1062 122.602 92.268 121.751C92.2392 120.05 91.9576 117.664 92.268 115.763C92.5785 113.862 92.5209 111.476 92.7116 109.553C92.9023 107.631 92.9977 105.495 93.4013 103.812C93.8049 102.129 93.1596 99.1858 94.7075 98.465C93.3303 97.2409 94.6299 94.5286 94.9137 92.4617C95.1954 90.3926 95.5192 87.7336 96.1113 85.6756C96.7034 83.6176 96.8919 81.1959 97.575 79.1556C98.2558 77.1131 98.1804 74.8311 98.2558 73.1834C97.9897 73.0348 97.6836 72.8197 97.5905 72.5181C97.2822 72.0147 97.1336 71.3516 96.7034 70.9657C96.2 71.0855 95.8673 70.6286 95.3728 70.7439C97.0383 72.6689 94.8428 74.4253 94.4857 76.2881C92.8003 76.6984 91.6205 78.9982 89.884 80.1137C88.1476 81.2269 86.5375 82.837 84.6725 83.7728C82.8052 84.7065 80.827 86.4208 78.7401 86.7113Z" stroke="#CACACA" stroke-width="0.3"/>
<path d="M66.5423 72.9614C66.2873 74.3009 65.8282 75.616 65.6553 76.9533C65.4113 78.8361 64.7482 80.4373 64.5619 82.513C64.3779 84.591 63.992 86.6534 63.7081 88.7558C63.4243 90.8582 63.4797 93.1202 63.0428 95.1871C62.6059 97.254 62.5305 99.3408 62.107 101.348C61.6834 103.355 61.9628 105.355 61.4904 107.384C61.0181 109.416 61.0757 111.689 60.7919 113.782C60.5102 115.878 60.3927 118.091 60.111 120.198C59.8294 122.305 59.8028 124.536 59.4457 126.629C59.0887 128.723 59.377 131.034 58.7804 133.061C58.1839 135.088 59.1818 138.035 58.3369 139.936C62.2755 141.94 62.291 148.09 57.4498 149.028C58.8558 148.137 60.661 146.928 60.7763 144.815C60.8894 142.699 59.683 140.918 57.8933 139.936C57.7603 139.898 56.8976 139.665 56.7845 139.492C56.7845 140.231 56.7845 140.971 56.7845 141.71C56.1192 141.71 55.4539 141.71 54.7886 141.71C54.7886 136.758 54.7886 131.803 54.7886 126.851C54.3783 131.096 54.6356 135.749 54.5668 140.157C49.0869 141.158 51.5619 150.323 57.0063 149.028C56.4984 160.886 57.0595 173.199 57.4498 185.176C63.1337 185.937 68.8953 186.407 74.7478 186.507C73.6877 184.952 72.7873 183.819 71.6607 182.276C70.5364 180.732 69.6205 179.637 68.3719 178.024C67.1234 176.412 67.9062 173.802 67.8729 171.649C67.8397 169.495 68.4628 166.874 68.3165 164.552C68.1701 162.23 68.587 159.753 68.7556 157.451C68.9219 155.147 68.8332 152.694 68.9818 150.359C69.1304 148.024 69.3078 145.613 69.4209 143.258C69.5318 140.9 69.6626 138.494 69.8644 136.161C70.0662 133.826 69.8334 131.384 70.0906 129.069C70.3479 126.754 70.339 124.283 70.5297 121.968C70.7182 119.65 70.6694 117.12 70.9755 114.874C71.2815 112.627 70.8291 109.921 71.1995 107.779C71.5698 105.637 72.2839 103.996 72.9692 102.009C73.6522 100.019 74.0847 98.3828 74.9673 96.4667C75.85 94.5506 74.4218 93.4041 73.8784 91.5723C73.3351 89.7427 70.441 88.7647 71.8825 87.3942C73.324 86.0258 76.1937 87.647 77.8525 86.7111C74.4018 87.2833 71.9779 84.1208 70.1461 81.555C68.3165 78.9869 66.9105 75.4186 67.2076 72.2961C66.9548 72.3937 66.6421 72.7508 66.5423 72.9614ZM56.7845 147.032C58.6207 146.07 59.1663 143.431 57.4498 142.153C59.6786 142.697 59.0865 146.81 56.7845 147.032Z" stroke="#C9C9C9" stroke-width="0.3"/>
<path d="M92.2677 121.751C92.5804 120.099 93.0838 118.292 93.3721 116.646C93.6582 114.999 94.044 113.242 94.6894 111.754C95.337 110.268 96.3216 109.428 97.4238 108.279C98.526 107.128 101.098 107.716 101.97 106.394C102.844 105.072 103.221 103.422 103.651 101.865C104.081 100.309 104.591 98.6897 105.081 97.0863C105.569 95.483 105.618 93.212 106.015 91.5887C106.414 89.9676 106.328 87.3817 106.461 85.8249C106.594 84.2681 106.002 81.8043 105.075 81.0015C104.146 80.2009 101.438 77.9255 103.134 77.3977C101.5 76.4862 98.7921 74.0579 97.5901 72.5188C97.6833 72.8204 97.9893 73.0355 98.2554 73.1841C98.18 74.8318 98.2554 77.1138 97.5746 79.1563C96.8915 81.1966 96.703 83.6183 96.1109 85.6763C95.5188 87.7343 95.195 90.3934 94.9134 92.4625C94.6295 94.5293 93.3299 97.2416 94.7071 98.4657C93.1592 99.1865 93.8045 102.129 93.4009 103.813C92.9973 105.496 92.9019 107.631 92.7112 109.554C92.5205 111.477 92.5781 113.863 92.2677 115.764C91.9572 117.664 92.2388 120.05 92.2677 121.751Z" stroke="#DFDFDF" stroke-width="0.3"/>
<path d="M64.3254 78.5062C61.296 83.4916 61.2229 90.0049 59.7171 96.2965C58.2135 102.59 57.9806 110.071 57.231 116.874C56.4792 123.678 56.7853 132.398 56.7853 139.493C56.8984 139.666 57.7611 139.898 57.8941 139.936C57.9961 139.965 58.2489 139.892 58.3377 139.936C59.1826 138.036 58.1846 135.088 58.7812 133.061C59.3777 131.034 59.0894 128.724 59.4465 126.63C59.8035 124.537 59.8302 122.306 60.1118 120.199C60.3934 118.092 60.511 115.879 60.7926 113.783C61.0765 111.689 61.0188 109.416 61.4912 107.385C61.9636 105.356 61.6841 103.355 62.1077 101.348C62.5313 99.3414 62.6067 97.2546 63.0436 95.1877C63.4805 93.1208 63.425 90.8588 63.7089 88.7564C63.9928 86.654 64.3786 84.5916 64.5627 82.5136C64.749 80.4378 65.4121 78.8367 65.656 76.9539C65.401 77.5105 64.6159 78.0272 64.3254 78.5062Z" stroke="#DFDFDF" stroke-width="0.3"/>
<path d="M92.2681 121.751C92.1062 122.603 91.6626 125.288 93.3769 124.412C94.0999 122.964 94.6476 121.23 94.9138 119.518C95.1777 117.804 95.6057 115.828 96.0226 114.196C96.4373 112.563 97.0893 111.262 98.4222 110.164C99.7572 109.068 101.74 108.558 103.359 109.108C104.975 109.658 106.08 110.57 106.854 112.044C107.628 113.519 108.364 115.719 107.792 117.538C107.22 119.356 107.73 121.288 106.907 123.084C106.084 124.878 107.59 127.559 108.628 125.47C109.666 123.381 108.648 121.687 109.344 119.755C110.038 117.824 109.772 115.799 109.615 113.941C109.457 112.082 108.626 110.958 107.515 109.609C106.404 108.261 105.131 107.636 103.578 107.114C105.131 102.939 106.687 98.8292 107.521 94.4249C108.353 90.0183 109.621 84.239 106.905 80.2805C105.907 78.9388 104.539 78.1803 103.135 77.3975C101.438 77.9253 104.146 80.2006 105.075 81.0012C106.002 81.804 106.594 84.2679 106.461 85.8247C106.328 87.3815 106.415 89.9673 106.016 91.5884C105.619 93.2118 105.57 95.4827 105.082 97.0861C104.592 98.6895 104.082 100.308 103.651 101.865C103.221 103.422 102.844 105.072 101.97 106.394C101.099 107.715 98.5264 107.128 97.4242 108.279C96.322 109.428 95.3374 110.268 94.6898 111.754C94.0444 113.242 93.6586 114.998 93.3725 116.646C93.0842 118.292 92.5808 120.099 92.2681 121.751Z" stroke="#868686" stroke-width="0.3"/>
<path d="M61.2213 80.946C58.2652 87.7965 57.5799 94.8731 56.491 102.384C55.4021 109.896 54.79 119.022 54.79 126.852C54.79 131.804 54.79 136.759 54.79 141.711C55.4553 141.711 56.1207 141.711 56.786 141.711C56.786 140.972 56.786 140.231 56.786 139.493C56.786 132.399 56.4799 123.679 57.2317 116.875C57.9813 110.071 58.2141 102.591 59.7177 96.2969C61.2235 90.0053 61.2967 83.492 64.3261 78.5066C62.8048 79.2429 61.9975 79.1453 61.2213 80.946Z" stroke="#868686" stroke-width="0.3"/>
<path d="M93.377 124.412C92.4634 126.239 92.6829 128.75 92.0442 130.841C91.4077 132.932 91.7759 135.76 91.8247 138.162C91.8735 140.563 91.4587 143.795 91.8402 146.13C92.2239 148.463 91.8202 151.104 92.7117 153.242C93.0666 154.091 93.1464 154.011 93.1553 155.016C93.5323 156.633 93.6387 158.52 94.0468 160.112C94.4571 161.702 94.7498 163.102 95.3042 164.621C95.8609 166.138 96.0028 167.448 96.7524 168.939C97.5019 170.427 97.1249 171.693 98.2737 173.183C99.4202 174.676 99.1475 176.379 97.1493 176.086C95.1512 175.794 95.0381 177.701 93.601 178.304C92.164 178.907 91.2614 179.659 90.106 180.575C88.9505 181.489 88.4028 183.123 88.2764 184.511C89.5981 184.434 90.6914 183.511 91.991 182.682C93.2906 181.852 94.1022 180.657 95.7655 180.468C97.4288 180.28 99.3071 179.792 101.139 180.076C100.338 181.105 98.5443 181.236 97.3024 181.784C96.0582 182.329 95.1268 183.387 93.8206 183.624C94.0645 184.551 93.1109 184.811 92.49 185.177C93.1797 185.791 92.6585 185.476 92.49 185.62C92.1152 185.944 91.4321 186.343 91.1594 186.729C90.3277 187.904 89.1767 190.118 89.1634 191.608C89.159 192.051 89.1657 192.495 89.1634 192.939C90.361 193.216 91.217 192.173 91.8247 191.386C93.5789 188.723 95.6923 185.631 99.3648 185.398C97.7836 187.279 95.5149 188.47 94.0424 190.499C93.051 192.118 92.8515 194.424 92.49 196.265C96.2157 194.245 98.1872 188.097 103.135 188.947C99.8771 190.333 98.8303 193.679 98.9213 196.93C101.01 199.188 101.449 194.493 102.248 193.16C106.847 191.883 112.258 193.267 116.441 190.721C117.124 193.699 118.16 196.562 118.659 199.592H133.295C132.408 194.773 130.031 190.43 129.082 185.62C131.2 183.469 131.229 186.623 131.299 188.281C132.983 187.461 133.601 185.483 135.014 184.234C136.429 182.986 137.289 181.575 138.562 180.242C139.835 178.912 140.767 177.435 142 176.14C143.233 174.844 144.515 173.529 145.437 172.037C146.36 170.547 148.192 169.624 148.986 168.045C149.779 166.468 151.418 165.388 152.385 163.905C153.354 162.421 154.579 161.048 155.628 159.607C156.674 158.163 157.632 156.511 158.579 155.018C159.526 153.526 160.444 151.809 161.256 150.155C162.065 148.498 163.048 146.686 163.955 145.092C164.86 143.497 166.219 142.102 166.8 140.397C167.379 138.689 167.031 135.931 166.184 134.325C165.337 132.717 163.993 131.571 162.846 130.123C161.7 128.674 160.471 127.444 159.531 125.898C158.593 124.35 157.368 123.095 156.193 121.695C155.02 120.294 154.164 118.819 152.867 117.482C151.569 116.144 150.979 114.543 149.54 113.268C148.101 111.995 147.653 110.308 146.213 109.055C144.774 107.804 144.036 106.058 142.776 104.73C141.516 103.399 140.614 101.891 139.449 100.516C138.285 99.1415 137.203 97.6977 136.123 96.3028C135.045 94.9079 133.664 93.6859 132.564 92.3221C131.461 90.9604 129.973 89.9203 128.656 88.6895C127.341 87.4587 125.842 86.5583 125.072 84.7331C124.303 82.908 123.238 81.5264 121.1 81.1649C118.96 80.8056 116.377 81.0163 114.223 80.5018C112.07 79.9851 108.967 81.0407 106.905 80.28C109.622 84.2386 108.353 90.0179 107.521 94.4244C106.688 98.8288 105.131 102.938 103.578 107.114C105.131 107.635 106.404 108.261 107.515 109.609C108.626 110.957 109.457 112.082 109.615 113.94C109.772 115.799 110.039 117.823 109.344 119.755C108.648 121.686 109.666 123.381 108.628 125.47C107.59 127.559 106.084 124.878 106.907 123.084C107.73 121.287 107.22 119.356 107.792 117.537C108.364 115.719 107.628 113.519 106.854 112.044C106.08 110.569 104.976 109.658 103.359 109.108C101.74 108.558 99.7573 109.068 98.4223 110.163C97.0895 111.261 96.4375 112.563 96.0227 114.195C95.6058 115.827 95.1778 117.803 94.9139 119.518C94.6478 121.23 94.1 122.964 93.377 124.412ZM140.614 138.162C137.793 143.098 137.54 149.991 134.016 154.406C130.49 158.819 126.212 162.086 122.872 166.548C120.763 161.372 120.393 155.18 116.441 151.024C117.202 150.605 117.825 149.911 118.659 149.694C116.554 140.26 120.011 130.71 119.989 121.085C127.713 125.37 133.444 132.908 140.614 138.162ZM99.3648 153.242C101.09 154.133 98.0298 156.593 96.555 155.165C95.0802 153.736 97.8279 152.448 99.3648 153.242Z" stroke="#DFDFDF" stroke-width="0.3"/>
<path d="M40.5955 114.432C42.1257 117.705 44.5807 121.194 43.922 124.855C43.2611 122.879 42.2964 121.049 41.4138 119.158C40.5334 117.264 39.6197 115.272 38.7503 113.394C37.881 111.518 36.9318 109.562 35.9893 107.728C35.0468 105.894 34.3704 103.654 33.3281 101.962C32.2858 100.27 32.0685 96.7991 29.7288 97.5775C29.7621 97.7992 30.0615 97.97 29.9506 98.2428C27.653 98.041 25.0761 98.7883 22.854 98.6863C20.6318 98.5843 17.9817 99.8018 16.4227 98.4646C15.8017 98.1607 15.1231 98.2406 14.4268 98.2428C15.3249 100.126 16.0856 102.179 17.0702 104.027C18.0549 105.872 19.1039 107.914 19.9532 109.792C20.8048 111.669 22.0467 113.549 22.803 115.37C23.5614 117.191 25.8989 120.032 22.854 120.42C21.6897 118.716 20.6185 116.8 19.5274 115.097C19.0772 119.222 20.3036 123.961 19.971 127.96C19.6383 131.958 22.6499 133.511 24.6281 136.387C24.1735 139.785 29.1877 142.377 29.507 145.48C30.352 146.251 31.8689 147.824 32.6672 149.194C33.4656 150.565 33.6519 150.108 34.2196 151.19C34.7873 152.272 35.0158 152.55 35.9383 153.241C35.5325 154.193 34.845 155.315 33.7206 155.459C38.2004 157.251 42.7821 158.38 47.2485 160.338C46.1153 173.298 45.909 186.507 45.2526 199.591H57.8934C58.0398 196.724 57.6717 193.998 57.6717 191.164C57.6717 189.853 57.7981 188.474 57.6717 187.172C57.6207 186.64 57.4632 185.855 57.4499 185.176C57.0596 173.198 56.4985 160.886 57.0064 149.028C51.5619 150.323 49.087 141.157 54.5669 140.157C54.6356 135.748 54.3784 131.096 54.7887 126.851C54.7887 119.02 55.4007 109.895 56.4896 102.383C57.5785 94.8719 58.2638 87.7953 61.22 80.9448C59.4236 83.2224 55.9086 82.9163 53.4625 84.054C51.0186 85.1939 48.5126 86.0389 46.6387 88.0969C44.7625 90.1527 43.2988 92.0532 42.4428 94.7677C41.5846 97.4821 40.6021 100.895 40.8172 104.009C41.0324 107.122 40.2717 111.467 40.5955 114.432ZM27.0676 123.968C27.3825 124.511 27.2228 125.263 26.4023 125.077C26.5686 124.698 26.4621 123.915 27.0676 123.968ZM32.8336 135.722C35.2908 141.21 37.9631 146.466 40.5955 151.911C42.7688 151.43 44.869 150.658 47.0268 150.137C47.1221 150.864 47.355 151.572 47.2485 152.354C44.605 152.935 42.017 153.641 39.4866 154.572C38.4621 152.523 37.3133 150.234 36.3131 148.209C35.3152 146.183 34.0999 143.803 33.0731 141.913C32.0463 140.024 29.5736 136.305 32.8336 135.722Z" stroke="#E3E3E3" stroke-width="0.3"/>
<path d="M57.4502 185.177C57.4635 185.855 57.621 186.64 57.672 187.173C57.7296 186.889 57.6276 186.572 57.672 186.285C61.7325 186.711 66.9508 187.164 70.3128 187.394C73.7369 186.135 77.558 186.882 80.9577 187.394C82.2927 187.596 84.8453 187.09 86.2823 186.953C87.7172 186.815 90.4582 186.937 91.159 186.729C91.4318 186.343 92.1149 185.944 92.4897 185.62C87.4045 185.554 81.9024 186.669 76.5223 186.507C79.3853 183.28 82.3526 180.034 85.3931 176.971C85.1114 169.934 84.6923 162.72 84.506 155.681C84.3197 148.642 83.8495 141.584 83.6189 134.613C83.3883 127.643 82.9336 119.994 82.9536 113.102C82.9736 106.209 81.2615 101.073 79.1835 94.9167C81.4034 93.2889 82.2062 90.2374 84.506 88.929C83.4858 86.5716 80.9111 86.7113 78.74 86.7113C78.445 86.7113 78.1479 86.7113 77.8529 86.7113C76.1941 87.6471 73.3244 86.026 71.8829 87.3943C70.4414 88.7649 73.3355 89.7429 73.8788 91.5725C74.4222 93.4043 75.8503 94.5508 74.9677 96.4669C74.0851 98.383 73.6526 100.02 72.9696 102.009C72.2843 103.996 71.5702 105.637 71.1999 107.779C70.8295 109.922 71.2819 112.627 70.9759 114.874C70.6698 117.12 70.7186 119.651 70.5301 121.968C70.3394 124.283 70.3483 126.754 70.091 129.069C69.8338 131.384 70.0666 133.826 69.8648 136.161C69.663 138.494 69.5322 140.9 69.4213 143.258C69.3082 145.613 69.1308 148.024 68.9822 150.359C68.8336 152.694 68.9223 155.147 68.756 157.451C68.5874 159.753 68.1705 162.23 68.3169 164.552C68.4632 166.874 67.8401 169.495 67.8733 171.649C67.9066 173.802 67.1237 176.412 68.3723 178.025C69.6209 179.637 70.5368 180.732 71.6611 182.276C72.7877 183.819 73.6881 184.953 74.7482 186.507C68.8957 186.407 63.1341 185.937 57.4502 185.177Z" stroke="#979797" stroke-width="0.3"/>
<path d="M14.6486 95.3603C14.4934 95.4268 14.3115 95.9036 14.2051 96.0256C15.7065 95.7883 15.6311 97.68 16.4228 98.4651C17.9818 99.8023 20.6319 98.5848 22.8541 98.6868C25.0762 98.7889 27.6531 98.0415 29.9507 98.2433C30.0615 97.9705 29.7622 97.7998 29.7289 97.578C29.6557 97.0901 28.62 95.0143 28.1765 94.695C26.3136 93.8523 23.5682 94.7327 21.5234 94.9168C19.4787 95.1008 16.6556 94.8236 14.6486 95.3603Z" stroke="#838383" stroke-width="0.3"/>
<path d="M29.7282 97.5783C32.0678 96.7999 32.2852 100.271 33.3275 101.963C34.3698 103.655 35.0462 105.895 35.9887 107.729C36.9312 109.563 37.8804 111.519 38.7497 113.395C39.619 115.273 40.5327 117.265 41.4132 119.159C42.2958 121.05 43.2605 122.88 43.9214 124.856C44.58 121.194 42.125 117.706 40.5948 114.433C39.7011 112.521 38.8007 110.802 38.0046 108.818C37.2106 106.833 36.2371 105.436 35.4897 103.349C34.7424 101.264 33.6291 100.259 33.0059 97.8489C32.3805 95.4405 30.0409 95.538 28.1758 94.6953C28.6193 95.0147 29.655 97.0904 29.7282 97.5783Z" stroke="#ADADAD" stroke-width="0.3"/>
<path d="M19.5282 115.098C20.6193 116.801 21.6904 118.717 22.8547 120.42C25.8996 120.032 23.5621 117.192 22.8037 115.371C22.0474 113.55 20.8055 111.669 19.9539 109.793C19.1046 107.915 18.0556 105.872 17.071 104.027C16.0863 102.18 15.3256 100.126 14.4275 98.2436C15.1238 98.2414 15.8024 98.1615 16.4234 98.4654C15.6317 97.6803 15.7071 95.7886 14.2057 96.0259C14.3122 95.9039 14.494 95.4271 14.6492 95.3606C13.5293 96.5626 11.6953 95.8263 10.2139 96.0259C13.0969 102.459 16.6119 108.718 19.5282 115.098Z" stroke="#ACACAC" stroke-width="0.3"/>
<path d="M140.613 138.162C133.443 132.908 127.713 125.37 119.989 121.086C120.011 130.71 116.554 140.26 118.658 149.694C117.824 149.911 117.201 150.605 116.44 151.024C120.392 155.18 120.763 161.372 122.872 166.548C126.212 162.086 130.489 158.82 134.016 154.406C137.54 149.991 137.792 143.098 140.613 138.162Z" stroke="#FEFEFE" stroke-width="0.3"/>
<path d="M27.0676 123.969C26.4622 123.916 26.5687 124.699 26.4023 125.078C27.2229 125.264 27.3826 124.512 27.0676 123.969Z" stroke="#B6B6B6" stroke-width="0.3"/>
<path d="M32.8338 135.722C29.5738 136.306 32.0466 140.025 33.0734 141.914C34.1001 143.804 35.3154 146.183 36.3134 148.21C37.3136 150.235 38.4623 152.523 39.4869 154.573C42.0173 153.641 44.6053 152.936 47.2488 152.355C47.3553 151.572 47.1224 150.865 47.027 150.137C44.8692 150.658 42.7691 151.43 40.5958 151.911C37.9634 146.467 35.291 141.211 32.8338 135.722Z" stroke="#ACACAC" stroke-width="0.3"/>
<path d="M58.3373 139.936C58.2486 139.892 57.9957 139.965 57.8937 139.936C59.6834 140.918 60.8898 142.699 60.7767 144.815C60.6614 146.928 58.8562 148.137 57.4502 149.029C62.2914 148.09 62.2759 141.941 58.3373 139.936Z" stroke="#ACACAC" stroke-width="0.3"/>
<path d="M56.7852 147.033C59.0871 146.811 59.6792 142.697 57.4505 142.154C59.167 143.431 58.6214 146.07 56.7852 147.033Z" stroke="#A0A0A0" stroke-width="0.3"/>
<path d="M29.5069 145.48C29.7175 147.532 28.571 150.02 29.8839 151.758C31.1967 153.495 31.8554 154.422 33.7205 155.46C34.8448 155.316 35.5323 154.194 35.9382 153.242C35.0156 152.55 34.7872 152.273 34.2194 151.191C33.6517 150.109 33.4654 150.565 32.6671 149.195C31.8687 147.824 30.3518 146.252 29.5069 145.48Z" stroke="#BFBFBF" stroke-width="0.3"/>
<path d="M93.155 155.017C93.1461 154.012 93.0663 154.092 92.7115 153.242C91.6115 152.699 89.1366 152.721 89.4027 154.112C89.671 155.5 92.6095 155.575 93.155 155.017Z" stroke="#7A7A7A" stroke-width="0.3"/>
<path d="M99.3652 153.242C97.8284 152.448 95.0807 153.737 96.5554 155.165C98.0302 156.593 101.091 154.134 99.3652 153.242Z" stroke="#797979" stroke-width="0.3"/>
<path d="M60.1121 42.1362C60.2562 43.1408 60.4736 44.5623 60.9992 45.4627C62.2588 42.684 61.5203 39.6923 61.4427 36.3702C61.3651 33.0481 62.383 31.2052 64.2703 28.5528C66.1597 25.9027 69.3687 25.7719 72.5311 26.1688C75.6936 26.5658 79.7054 26.3795 82.7325 26.1688C85.7596 25.9582 89.1682 26.1999 90.5609 28.9853C91.9559 31.7707 89.6628 35.5607 91.4524 38.2951C93.2443 41.0296 93.4195 43.8748 93.1556 47.2369C94.4862 46.6913 95.6838 45.5071 96.7039 44.5756C96.7017 43.3537 97.1696 42.185 97.3715 41.0296C97.5733 39.8741 97.7773 38.5879 98.0368 37.4813C98.2962 36.3724 98.4404 34.7757 98.4781 33.709C98.5158 32.6423 98.1432 30.2183 98.9216 30.826C98.7087 28.6172 98.4204 27.3664 97.4358 25.437C96.4533 23.5054 95.3644 23.0175 94.0981 21.2345C92.8296 19.4515 90.2549 20.1633 89.0108 18.5599C87.7644 16.9588 87.4096 16.1249 85.1897 15.2844C82.9676 14.4461 81.4041 14.4328 79.4082 14.6346C77.4123 14.8387 75.0061 13.905 73.1987 14.6391C71.389 15.3731 69.4286 16.2092 67.4305 16.411C69.1159 17.4977 63.361 17.786 64.5475 19.294C61.2897 21.5738 59.7728 25.1797 58.766 29.0363C57.7591 32.8906 59.5444 38.1687 60.1121 42.1362Z" fill="#9D9D9D" stroke="#DADADA"/>
<path d="M60.1116 42.1355C59.0759 42.466 57.9405 43.3087 58.1157 44.7968C58.2909 46.2848 57.8939 47.8039 58.5769 48.9926C59.2578 50.1835 59.8765 50.6426 60.1138 51.8911C60.3489 53.1419 60.6926 54.253 61.3868 55.2753C62.0809 56.2977 62.2273 57.4265 62.4779 58.6196C62.7307 59.8127 63.1676 61.0568 63.5911 62.1635C64.0147 63.2701 64.4339 64.0995 65.1568 65.0332C65.8798 65.9646 66.7935 66.4347 67.3568 67.4903C67.9201 68.546 67.0862 70.6772 67.43 71.8525C66.5917 71.7794 66.6116 72.5933 66.5429 72.9614C66.6427 72.7507 66.9554 72.3937 67.2082 72.2961C66.911 75.4186 68.317 78.9868 70.1466 81.5549C71.9784 84.1208 74.4024 87.2832 77.8531 86.711C78.148 86.711 78.4452 86.711 78.7402 86.711C80.827 86.4205 82.8052 84.7063 84.6725 83.7726C86.5375 82.8368 88.1476 81.2267 89.884 80.1134C91.6205 78.9979 92.8003 76.6982 94.4857 76.2879C94.8428 74.4251 97.0383 72.6687 95.3728 70.7437C95.8674 70.6284 96.2 71.0852 96.7034 70.9655C94.59 69.9719 94.6787 67.4615 94.2595 65.2039C93.8382 62.9463 93.8847 59.8482 93.8204 57.4376C94.9847 56.3531 95.0668 56.8832 95.8341 55.0159C96.6014 53.1464 98.3489 51.3035 98.9233 49.4561C99.4955 47.6088 98.9876 46.9346 99.1251 45.4798C99.2626 44.0272 96.455 44.6748 96.7034 44.575C95.6833 45.5064 94.4857 46.6907 93.1551 47.2362C93.419 43.8742 93.2438 41.0289 91.4519 38.2945C89.6623 35.5601 91.9554 31.7701 90.5604 28.9846C89.1677 26.1992 85.7591 25.9575 82.732 26.1682C79.7049 26.3789 75.6931 26.5652 72.5306 26.1682C69.3682 25.7712 66.1592 25.9021 64.2697 28.5522C62.3825 31.2046 61.3646 33.0475 61.4422 36.3695C61.5198 39.6916 62.2583 42.6833 60.9987 45.4621C60.4731 44.5617 60.2557 43.1401 60.1116 42.1355Z" fill="#E8E8E8" stroke="#DADADA"/>
<path d="M78.7401 86.7113C80.9113 86.7113 83.486 86.5716 84.5061 88.929C82.2064 90.2374 81.4036 93.2889 79.1837 94.9167C81.2617 101.073 82.9737 106.209 82.9538 113.102C82.9338 119.994 83.3884 127.643 83.6191 134.613C83.8497 141.584 84.3198 148.642 84.5061 155.681C84.6924 162.72 85.1116 169.934 85.3932 176.971C82.3528 180.034 79.3855 183.28 76.5225 186.507C81.9026 186.669 87.4047 185.554 92.4898 185.62C92.6584 185.476 93.1795 185.791 92.4898 185.177C93.1108 184.811 94.0644 184.551 93.8204 183.624C95.1266 183.387 96.0581 182.329 97.3022 181.784C98.5441 181.236 100.338 181.105 101.139 180.076C99.307 179.792 97.4286 180.28 95.7653 180.468C94.1021 180.657 93.2904 181.852 91.9908 182.682C90.6913 183.511 89.5979 184.434 88.2762 184.511C88.4026 183.123 88.9504 181.489 90.1058 180.575C91.2612 179.659 92.1638 178.907 93.6009 178.304C95.0379 177.701 95.151 175.794 97.1492 176.086C99.1473 176.379 99.4201 174.676 98.2735 173.183C97.1248 171.693 97.5018 170.427 96.7522 168.939C96.0026 167.448 95.8607 166.138 95.3041 164.621C94.7496 163.102 94.4569 161.702 94.0466 160.112C93.6386 158.52 93.5321 156.633 93.1551 155.016C92.6096 155.575 89.6711 155.499 89.4028 154.111C89.1367 152.721 91.6116 152.699 92.7116 153.242C91.8201 151.104 92.2237 148.463 91.84 146.13C91.4586 143.795 91.8733 140.563 91.8245 138.162C91.7757 135.76 91.4076 132.932 92.0441 130.841C92.6827 128.75 92.4632 126.239 93.3769 124.412C91.6626 125.288 92.1061 122.602 92.268 121.751C92.2392 120.05 91.9576 117.664 92.268 115.763C92.5785 113.862 92.5209 111.476 92.7116 109.553C92.9023 107.631 92.9977 105.495 93.4013 103.812C93.8049 102.129 93.1596 99.1858 94.7075 98.465C93.3303 97.2409 94.6299 94.5286 94.9137 92.4617C95.1954 90.3926 95.5192 87.7336 96.1113 85.6756C96.7034 83.6176 96.8919 81.1959 97.575 79.1556C98.2558 77.1131 98.1804 74.8311 98.2558 73.1834C97.9897 73.0348 97.6836 72.8197 97.5905 72.5181C97.2822 72.0147 97.1336 71.3516 96.7034 70.9657C96.2 71.0855 95.8673 70.6286 95.3728 70.7439C97.0383 72.6689 94.8428 74.4253 94.4857 76.2881C92.8003 76.6984 91.6205 78.9982 89.884 80.1137C88.1476 81.2269 86.5375 82.837 84.6725 83.7728C82.8052 84.7065 80.827 86.4208 78.7401 86.7113Z" fill="#CACACA" stroke="#DADADA"/>
<path d="M66.5423 72.9614C66.2873 74.3009 65.8282 75.616 65.6553 76.9533C65.4113 78.8361 64.7482 80.4373 64.5619 82.513C64.3779 84.591 63.992 86.6534 63.7081 88.7558C63.4243 90.8582 63.4797 93.1202 63.0428 95.1871C62.6059 97.254 62.5305 99.3408 62.107 101.348C61.6834 103.355 61.9628 105.355 61.4904 107.384C61.0181 109.416 61.0757 111.689 60.7919 113.782C60.5102 115.878 60.3927 118.091 60.111 120.198C59.8294 122.305 59.8028 124.536 59.4457 126.629C59.0887 128.723 59.377 131.034 58.7804 133.061C58.1839 135.088 59.1818 138.035 58.3369 139.936C62.2755 141.94 62.291 148.09 57.4498 149.028C58.8558 148.137 60.661 146.928 60.7763 144.815C60.8894 142.699 59.683 140.918 57.8933 139.936C57.7603 139.898 56.8976 139.665 56.7845 139.492C56.7845 140.231 56.7845 140.971 56.7845 141.71C56.1192 141.71 55.4539 141.71 54.7886 141.71C54.7886 136.758 54.7886 131.803 54.7886 126.851C54.3783 131.096 54.6356 135.749 54.5668 140.157C49.0869 141.158 51.5619 150.323 57.0063 149.028C56.4984 160.886 57.0595 173.199 57.4498 185.176C63.1337 185.937 68.8953 186.407 74.7478 186.507C73.6877 184.952 72.7873 183.819 71.6607 182.276C70.5364 180.732 69.6205 179.637 68.3719 178.024C67.1234 176.412 67.9062 173.802 67.8729 171.649C67.8397 169.495 68.4628 166.874 68.3165 164.552C68.1701 162.23 68.587 159.753 68.7556 157.451C68.9219 155.147 68.8332 152.694 68.9818 150.359C69.1304 148.024 69.3078 145.613 69.4209 143.258C69.5318 140.9 69.6626 138.494 69.8644 136.161C70.0662 133.826 69.8334 131.384 70.0906 129.069C70.3479 126.754 70.339 124.283 70.5297 121.968C70.7182 119.65 70.6694 117.12 70.9755 114.874C71.2815 112.627 70.8291 109.921 71.1995 107.779C71.5698 105.637 72.2839 103.996 72.9692 102.009C73.6522 100.019 74.0847 98.3828 74.9673 96.4667C75.85 94.5506 74.4218 93.4041 73.8784 91.5723C73.3351 89.7427 70.441 88.7647 71.8825 87.3942C73.324 86.0258 76.1937 87.647 77.8525 86.7111C74.4018 87.2833 71.9779 84.1208 70.1461 81.555C68.3165 78.9869 66.9105 75.4186 67.2076 72.2961C66.9548 72.3937 66.6421 72.7508 66.5423 72.9614ZM56.7845 147.032C58.6207 146.07 59.1663 143.431 57.4498 142.153C59.6786 142.697 59.0865 146.81 56.7845 147.032Z" fill="#C9C9C9" stroke="#DADADA"/>
<path d="M92.2677 121.751C92.5804 120.099 93.0838 118.292 93.3721 116.646C93.6582 114.999 94.044 113.242 94.6894 111.754C95.337 110.268 96.3216 109.428 97.4238 108.279C98.526 107.128 101.098 107.716 101.97 106.394C102.844 105.072 103.221 103.422 103.651 101.865C104.081 100.309 104.591 98.6897 105.081 97.0863C105.569 95.483 105.618 93.212 106.015 91.5887C106.414 89.9676 106.328 87.3817 106.461 85.8249C106.594 84.2681 106.002 81.8043 105.075 81.0015C104.146 80.2009 101.438 77.9255 103.134 77.3977C101.5 76.4862 98.7921 74.0579 97.5901 72.5188C97.6833 72.8204 97.9893 73.0355 98.2554 73.1841C98.18 74.8318 98.2554 77.1138 97.5746 79.1563C96.8915 81.1966 96.703 83.6183 96.1109 85.6763C95.5188 87.7343 95.195 90.3934 94.9134 92.4625C94.6295 94.5293 93.3299 97.2416 94.7071 98.4657C93.1592 99.1865 93.8045 102.129 93.4009 103.813C92.9973 105.496 92.9019 107.631 92.7112 109.554C92.5205 111.477 92.5781 113.863 92.2677 115.764C91.9572 117.664 92.2388 120.05 92.2677 121.751Z" fill="#DFDFDF" stroke="#DADADA"/>
<path d="M64.3254 78.5062C61.296 83.4916 61.2229 90.0049 59.7171 96.2965C58.2135 102.59 57.9806 110.071 57.231 116.874C56.4792 123.678 56.7853 132.398 56.7853 139.493C56.8984 139.666 57.7611 139.898 57.8941 139.936C57.9961 139.965 58.2489 139.892 58.3377 139.936C59.1826 138.036 58.1846 135.088 58.7812 133.061C59.3777 131.034 59.0894 128.724 59.4465 126.63C59.8035 124.537 59.8302 122.306 60.1118 120.199C60.3934 118.092 60.511 115.879 60.7926 113.783C61.0765 111.689 61.0188 109.416 61.4912 107.385C61.9636 105.356 61.6841 103.355 62.1077 101.348C62.5313 99.3414 62.6067 97.2546 63.0436 95.1877C63.4805 93.1208 63.425 90.8588 63.7089 88.7564C63.9928 86.654 64.3786 84.5916 64.5627 82.5136C64.749 80.4378 65.4121 78.8367 65.656 76.9539C65.401 77.5105 64.6159 78.0272 64.3254 78.5062Z" fill="#DFDFDF" stroke="#DADADA"/>
<path d="M92.2681 121.751C92.1062 122.603 91.6626 125.288 93.3769 124.412C94.0999 122.964 94.6476 121.23 94.9138 119.518C95.1777 117.804 95.6057 115.828 96.0226 114.196C96.4373 112.563 97.0893 111.262 98.4222 110.164C99.7572 109.068 101.74 108.558 103.359 109.108C104.975 109.658 106.08 110.57 106.854 112.044C107.628 113.519 108.364 115.719 107.792 117.538C107.22 119.356 107.73 121.288 106.907 123.084C106.084 124.878 107.59 127.559 108.628 125.47C109.666 123.381 108.648 121.687 109.344 119.755C110.038 117.824 109.772 115.799 109.615 113.941C109.457 112.082 108.626 110.958 107.515 109.609C106.404 108.261 105.131 107.636 103.578 107.114C105.131 102.939 106.687 98.8292 107.521 94.4249C108.353 90.0183 109.621 84.239 106.905 80.2805C105.907 78.9388 104.539 78.1803 103.135 77.3975C101.438 77.9253 104.146 80.2006 105.075 81.0012C106.002 81.804 106.594 84.2679 106.461 85.8247C106.328 87.3815 106.415 89.9673 106.016 91.5884C105.619 93.2118 105.57 95.4827 105.082 97.0861C104.592 98.6895 104.082 100.308 103.651 101.865C103.221 103.422 102.844 105.072 101.97 106.394C101.099 107.715 98.5264 107.128 97.4242 108.279C96.322 109.428 95.3374 110.268 94.6898 111.754C94.0444 113.242 93.6586 114.998 93.3725 116.646C93.0842 118.292 92.5808 120.099 92.2681 121.751Z" fill="#868686" stroke="#DADADA"/>
<path d="M61.2213 80.946C58.2652 87.7965 57.5799 94.8731 56.491 102.384C55.4021 109.896 54.79 119.022 54.79 126.852C54.79 131.804 54.79 136.759 54.79 141.711C55.4553 141.711 56.1207 141.711 56.786 141.711C56.786 140.972 56.786 140.231 56.786 139.493C56.786 132.399 56.4799 123.679 57.2317 116.875C57.9813 110.071 58.2141 102.591 59.7177 96.2969C61.2235 90.0053 61.2967 83.492 64.3261 78.5066C62.8048 79.2429 61.9975 79.1453 61.2213 80.946Z" fill="#868686" stroke="#DADADA"/>
<path d="M93.377 124.412C92.4634 126.239 92.6829 128.75 92.0442 130.841C91.4077 132.932 91.7759 135.76 91.8247 138.162C91.8735 140.563 91.4587 143.795 91.8402 146.13C92.2239 148.463 91.8202 151.104 92.7117 153.242C93.0666 154.091 93.1464 154.011 93.1553 155.016C93.5323 156.633 93.6387 158.52 94.0468 160.112C94.4571 161.702 94.7498 163.102 95.3042 164.621C95.8609 166.138 96.0028 167.448 96.7524 168.939C97.5019 170.427 97.1249 171.693 98.2737 173.183C99.4202 174.676 99.1475 176.379 97.1493 176.086C95.1512 175.794 95.0381 177.701 93.601 178.304C92.164 178.907 91.2614 179.659 90.106 180.575C88.9505 181.489 88.4028 183.123 88.2764 184.511C89.5981 184.434 90.6914 183.511 91.991 182.682C93.2906 181.852 94.1022 180.657 95.7655 180.468C97.4288 180.28 99.3071 179.792 101.139 180.076C100.338 181.105 98.5443 181.236 97.3024 181.784C96.0582 182.329 95.1268 183.387 93.8206 183.624C94.0645 184.551 93.1109 184.811 92.49 185.177C93.1797 185.791 92.6585 185.476 92.49 185.62C92.1152 185.944 91.4321 186.343 91.1594 186.729C90.3277 187.904 89.1767 190.118 89.1634 191.608C89.159 192.051 89.1657 192.495 89.1634 192.939C90.361 193.216 91.217 192.173 91.8247 191.386C93.5789 188.723 95.6923 185.631 99.3648 185.398C97.7836 187.279 95.5149 188.47 94.0424 190.499C93.051 192.118 92.8515 194.424 92.49 196.265C96.2157 194.245 98.1872 188.097 103.135 188.947C99.8771 190.333 98.8303 193.679 98.9213 196.93C101.01 199.188 101.449 194.493 102.248 193.16C106.847 191.883 112.258 193.267 116.441 190.721C117.124 193.699 118.16 196.562 118.659 199.592H133.295C132.408 194.773 130.031 190.43 129.082 185.62C131.2 183.469 131.229 186.623 131.299 188.281C132.983 187.461 133.601 185.483 135.014 184.234C136.429 182.986 137.289 181.575 138.562 180.242C139.835 178.912 140.767 177.435 142 176.14C143.233 174.844 144.515 173.529 145.437 172.037C146.36 170.547 148.192 169.624 148.986 168.045C149.779 166.468 151.418 165.388 152.385 163.905C153.354 162.421 154.579 161.048 155.628 159.607C156.674 158.163 157.632 156.511 158.579 155.018C159.526 153.526 160.444 151.809 161.256 150.155C162.065 148.498 163.048 146.686 163.955 145.092C164.86 143.497 166.219 142.102 166.8 140.397C167.379 138.689 167.031 135.931 166.184 134.325C165.337 132.717 163.993 131.571 162.846 130.123C161.7 128.674 160.471 127.444 159.531 125.898C158.593 124.35 157.368 123.095 156.193 121.695C155.02 120.294 154.164 118.819 152.867 117.482C151.569 116.144 150.979 114.543 149.54 113.268C148.101 111.995 147.653 110.308 146.213 109.055C144.774 107.804 144.036 106.058 142.776 104.73C141.516 103.399 140.614 101.891 139.449 100.516C138.285 99.1415 137.203 97.6977 136.123 96.3028C135.045 94.9079 133.664 93.6859 132.564 92.3221C131.461 90.9604 129.973 89.9203 128.656 88.6895C127.341 87.4587 125.842 86.5583 125.072 84.7331C124.303 82.908 123.238 81.5264 121.1 81.1649C118.96 80.8056 116.377 81.0163 114.223 80.5018C112.07 79.9851 108.967 81.0407 106.905 80.28C109.622 84.2386 108.353 90.0179 107.521 94.4244C106.688 98.8288 105.131 102.938 103.578 107.114C105.131 107.635 106.404 108.261 107.515 109.609C108.626 110.957 109.457 112.082 109.615 113.94C109.772 115.799 110.039 117.823 109.344 119.755C108.648 121.686 109.666 123.381 108.628 125.47C107.59 127.559 106.084 124.878 106.907 123.084C107.73 121.287 107.22 119.356 107.792 117.537C108.364 115.719 107.628 113.519 106.854 112.044C106.08 110.569 104.976 109.658 103.359 109.108C101.74 108.558 99.7573 109.068 98.4223 110.163C97.0895 111.261 96.4375 112.563 96.0227 114.195C95.6058 115.827 95.1778 117.803 94.9139 119.518C94.6478 121.23 94.1 122.964 93.377 124.412ZM140.614 138.162C137.793 143.098 137.54 149.991 134.016 154.406C130.49 158.819 126.212 162.086 122.872 166.548C120.763 161.372 120.393 155.18 116.441 151.024C117.202 150.605 117.825 149.911 118.659 149.694C116.554 140.26 120.011 130.71 119.989 121.085C127.713 125.37 133.444 132.908 140.614 138.162ZM99.3648 153.242C101.09 154.133 98.0298 156.593 96.555 155.165C95.0802 153.736 97.8279 152.448 99.3648 153.242Z" fill="#DFDFDF" stroke="#DADADA"/>
<path d="M40.5955 114.432C42.1257 117.705 44.5807 121.194 43.922 124.855C43.2611 122.879 42.2964 121.049 41.4138 119.158C40.5334 117.264 39.6197 115.272 38.7503 113.394C37.881 111.518 36.9318 109.562 35.9893 107.728C35.0468 105.894 34.3704 103.654 33.3281 101.962C32.2858 100.27 32.0685 96.7991 29.7288 97.5775C29.7621 97.7992 30.0615 97.97 29.9506 98.2428C27.653 98.041 25.0761 98.7883 22.854 98.6863C20.6318 98.5843 17.9817 99.8018 16.4227 98.4646C15.8017 98.1607 15.1231 98.2406 14.4268 98.2428C15.3249 100.126 16.0856 102.179 17.0702 104.027C18.0549 105.872 19.1039 107.914 19.9532 109.792C20.8048 111.669 22.0467 113.549 22.803 115.37C23.5614 117.191 25.8989 120.032 22.854 120.42C21.6897 118.716 20.6185 116.8 19.5274 115.097C19.0772 119.222 20.3036 123.961 19.971 127.96C19.6383 131.958 22.6499 133.511 24.6281 136.387C24.1735 139.785 29.1877 142.377 29.507 145.48C30.352 146.251 31.8689 147.824 32.6672 149.194C33.4656 150.565 33.6519 150.108 34.2196 151.19C34.7873 152.272 35.0158 152.55 35.9383 153.241C35.5325 154.193 34.845 155.315 33.7206 155.459C38.2004 157.251 42.7821 158.38 47.2485 160.338C46.1153 173.298 45.909 186.507 45.2526 199.591H57.8934C58.0398 196.724 57.6717 193.998 57.6717 191.164C57.6717 189.853 57.7981 188.474 57.6717 187.172C57.6207 186.64 57.4632 185.855 57.4499 185.176C57.0596 173.198 56.4985 160.886 57.0064 149.028C51.5619 150.323 49.087 141.157 54.5669 140.157C54.6356 135.748 54.3784 131.096 54.7887 126.851C54.7887 119.02 55.4007 109.895 56.4896 102.383C57.5785 94.8719 58.2638 87.7953 61.22 80.9448C59.4236 83.2224 55.9086 82.9163 53.4625 84.054C51.0186 85.1939 48.5126 86.0389 46.6387 88.0969C44.7625 90.1527 43.2988 92.0532 42.4428 94.7677C41.5846 97.4821 40.6021 100.895 40.8172 104.009C41.0324 107.122 40.2717 111.467 40.5955 114.432ZM27.0676 123.968C27.3825 124.511 27.2228 125.263 26.4023 125.077C26.5686 124.698 26.4621 123.915 27.0676 123.968ZM32.8336 135.722C35.2908 141.21 37.9631 146.466 40.5955 151.911C42.7688 151.43 44.8689 150.658 47.0268 150.137C47.1221 150.864 47.355 151.572 47.2485 152.354C44.605 152.935 42.017 153.641 39.4866 154.572C38.4621 152.523 37.3133 150.234 36.3131 148.209C35.3152 146.183 34.0999 143.803 33.0731 141.913C32.0463 140.024 29.5736 136.305 32.8336 135.722Z" fill="#E3E3E3" stroke="#DADADA"/>
<path d="M57.4502 185.177C57.4635 185.855 57.621 186.64 57.672 187.173C57.7296 186.889 57.6276 186.572 57.672 186.285C61.7325 186.711 66.9508 187.164 70.3128 187.394C73.7369 186.135 77.558 186.882 80.9577 187.394C82.2927 187.596 84.8453 187.09 86.2823 186.953C87.7172 186.815 90.4582 186.937 91.159 186.729C91.4318 186.343 92.1149 185.944 92.4897 185.62C87.4045 185.554 81.9024 186.669 76.5223 186.507C79.3853 183.28 82.3526 180.034 85.3931 176.971C85.1114 169.934 84.6923 162.72 84.506 155.681C84.3197 148.642 83.8495 141.584 83.6189 134.613C83.3883 127.643 82.9336 119.994 82.9536 113.102C82.9736 106.209 81.2615 101.073 79.1835 94.9167C81.4034 93.2889 82.2062 90.2374 84.506 88.929C83.4858 86.5716 80.9111 86.7113 78.74 86.7113C78.445 86.7113 78.1479 86.7113 77.8529 86.7113C76.1941 87.6471 73.3244 86.026 71.8829 87.3943C70.4414 88.7649 73.3355 89.7429 73.8788 91.5725C74.4222 93.4043 75.8503 94.5508 74.9677 96.4669C74.0851 98.383 73.6526 100.02 72.9696 102.009C72.2843 103.996 71.5702 105.637 71.1999 107.779C70.8295 109.922 71.2819 112.627 70.9759 114.874C70.6698 117.12 70.7186 119.651 70.5301 121.968C70.3394 124.283 70.3483 126.754 70.091 129.069C69.8338 131.384 70.0666 133.826 69.8648 136.161C69.663 138.494 69.5322 140.9 69.4213 143.258C69.3082 145.613 69.1308 148.024 68.9822 150.359C68.8336 152.694 68.9223 155.147 68.756 157.451C68.5874 159.753 68.1705 162.23 68.3169 164.552C68.4632 166.874 67.8401 169.495 67.8733 171.649C67.9066 173.802 67.1237 176.412 68.3723 178.025C69.6209 179.637 70.5368 180.732 71.6611 182.276C72.7877 183.819 73.6881 184.953 74.7482 186.507C68.8957 186.407 63.1341 185.937 57.4502 185.177Z" fill="#979797" stroke="#979797"/>
<path d="M14.6486 95.3603C14.4934 95.4268 14.3115 95.9036 14.2051 96.0256C15.7065 95.7883 15.6311 97.68 16.4228 98.4651C17.9818 99.8023 20.6319 98.5848 22.8541 98.6868C25.0762 98.7889 27.6531 98.0415 29.9507 98.2433C30.0615 97.9705 29.7622 97.7998 29.7289 97.578C29.6557 97.0901 28.62 95.0143 28.1765 94.695C26.3136 93.8523 23.5682 94.7327 21.5234 94.9168C19.4787 95.1008 16.6556 94.8236 14.6486 95.3603Z" fill="#838383" stroke="#DADADA"/>
<path d="M29.7282 97.5783C32.0678 96.7999 32.2852 100.271 33.3275 101.963C34.3698 103.655 35.0462 105.895 35.9887 107.729C36.9312 109.563 37.8804 111.519 38.7497 113.395C39.619 115.273 40.5327 117.265 41.4132 119.159C42.2958 121.05 43.2605 122.88 43.9214 124.856C44.58 121.194 42.125 117.706 40.5948 114.433C39.7011 112.521 38.8007 110.802 38.0046 108.818C37.2106 106.833 36.2371 105.436 35.4897 103.349C34.7424 101.264 33.6291 100.259 33.0059 97.8489C32.3805 95.4405 30.0409 95.538 28.1758 94.6953C28.6193 95.0147 29.655 97.0904 29.7282 97.5783Z" fill="#ADADAD" stroke="#DADADA"/>
<path d="M19.5282 115.098C20.6193 116.801 21.6904 118.717 22.8547 120.42C25.8996 120.032 23.5621 117.192 22.8037 115.371C22.0474 113.55 20.8055 111.669 19.9539 109.793C19.1046 107.915 18.0556 105.872 17.071 104.027C16.0863 102.18 15.3256 100.126 14.4275 98.2436C15.1238 98.2414 15.8024 98.1615 16.4234 98.4654C15.6317 97.6803 15.7071 95.7886 14.2057 96.0259C14.3122 95.9039 14.494 95.4271 14.6492 95.3606C13.5293 96.5626 11.6953 95.8263 10.2139 96.0259C13.0969 102.459 16.6119 108.718 19.5282 115.098Z" fill="#ACACAC" stroke="#DADADA"/>
<path d="M27.0676 123.969C26.4622 123.916 26.5687 124.699 26.4023 125.078C27.2229 125.264 27.3826 124.512 27.0676 123.969Z" fill="#B6B6B6" stroke="#DADADA"/>
<path d="M32.8338 135.722C29.5738 136.306 32.0466 140.025 33.0734 141.914C34.1001 143.804 35.3154 146.183 36.3134 148.21C37.3136 150.235 38.4623 152.523 39.4869 154.573C42.0173 153.641 44.6053 152.936 47.2488 152.355C47.3553 151.572 47.1224 150.865 47.027 150.137C44.8692 150.658 42.7691 151.43 40.5958 151.911C37.9634 146.467 35.291 141.211 32.8338 135.722Z" fill="#ACACAC" stroke="#DADADA"/>
<path d="M58.3373 139.936C58.2486 139.892 57.9957 139.965 57.8937 139.936C59.6834 140.918 60.8898 142.699 60.7767 144.815C60.6614 146.928 58.8562 148.137 57.4502 149.029C62.2914 148.09 62.2759 141.941 58.3373 139.936Z" fill="#ACACAC" stroke="#DADADA"/>
<path d="M56.7852 147.033C59.0871 146.811 59.6792 142.697 57.4505 142.154C59.167 143.431 58.6214 146.07 56.7852 147.033Z" fill="#A0A0A0" stroke="#DADADA"/>
<path d="M29.5069 145.48C29.7175 147.532 28.571 150.02 29.8839 151.758C31.1967 153.495 31.8554 154.422 33.7205 155.46C34.8448 155.316 35.5323 154.194 35.9382 153.242C35.0156 152.55 34.7872 152.273 34.2194 151.191C33.6517 150.109 33.4654 150.565 32.6671 149.195C31.8687 147.824 30.3518 146.252 29.5069 145.48Z" fill="#BFBFBF" stroke="#DADADA"/>
<path d="M93.155 155.017C93.1461 154.012 93.0663 154.092 92.7115 153.242C91.6115 152.699 89.1366 152.721 89.4027 154.112C89.671 155.5 92.6095 155.575 93.155 155.017Z" fill="#7A7A7A" stroke="#DADADA"/>
<path d="M99.3652 153.242C97.8284 152.448 95.0807 153.737 96.5554 155.165C98.0302 156.593 101.091 154.134 99.3652 153.242Z" fill="#797979" stroke="#DADADA"/>
</g>
<defs>
<clipPath id="clip0_24_32">
<rect width="169" height="169" rx="17" fill="white"/>
</clipPath>
</defs>
</svg>
